<?xml version="1.0" encoding="UTF-8"?>
<!DOCTYPE svg PUBLIC "-//W3C//DTD SVG 1.1//EN" "http://www.w3.org/Graphics/SVG/1.1/DTD/svg11.dtd">
<svg xmlns="http://www.w3.org/2000/svg" version="1.1" width="172px" height="180px" style="shape-rendering:geometricPrecision; text-rendering:geometricPrecision; image-rendering:optimizeQuality; fill-rule:evenodd; clip-rule:evenodd" xmlns:xlink="http://www.w3.org/1999/xlink">
<g><path style="opacity:0.993" fill="#283138" d="M 78.5,-0.5 C 81.8333,-0.5 85.1667,-0.5 88.5,-0.5C 111.232,11.3689 133.899,23.5356 156.5,36C 162.529,38.691 166.362,43.191 168,49.5C 168.667,76.1667 168.667,102.833 168,129.5C 166.362,135.809 162.529,140.309 156.5,143C 133.899,155.464 111.232,167.631 88.5,179.5C 85.1667,179.5 81.8333,179.5 78.5,179.5C 55.5936,167.043 32.5936,154.543 9.5,142C 5.23391,139.238 1.90058,135.738 -0.5,131.5C -0.5,103.5 -0.5,75.5 -0.5,47.5C 1.90058,43.2622 5.23391,39.7622 9.5,37C 32.5936,24.4571 55.5936,11.9571 78.5,-0.5 Z M 81.5,33.5 C 87.1258,34.8084 92.4591,36.9751 97.5,40C 110.744,46.8692 123.577,54.3692 136,62.5C 136.667,80.5 136.667,98.5 136,116.5C 131.565,120.094 126.731,123.094 121.5,125.5C 120.808,124.975 120.308,124.308 120,123.5C 119.667,108.833 119.333,94.1667 119,79.5C 118.586,79.0426 118.086,78.7093 117.5,78.5C 108.749,82.6217 100.582,87.6217 93,93.5C 92.6667,109.167 92.3333,124.833 92,140.5C 87.0033,146.585 81.67,146.919 76,141.5C 75.971,125.075 75.3043,108.742 74,92.5C 60.4101,84.287 46.5768,76.4536 32.5,69C 30.1526,64.9512 31.1526,61.6179 35.5,59C 38.5464,56.826 41.8798,56.1593 45.5,57C 57.7811,64.3069 70.4477,70.8069 83.5,76.5C 90.5093,74.1631 97.1759,70.9964 103.5,67C 104.747,65.5064 104.747,64.0064 103.5,62.5C 91.3374,55.9197 79.3374,49.0863 67.5,42C 72.3968,39.3922 77.0635,36.5589 81.5,33.5 Z M 31.5,79.5 C 37.0049,81.5033 42.1715,84.1699 47,87.5C 47.9777,100.322 47.6444,112.989 46,125.5C 42.5788,123.539 39.0788,121.706 35.5,120C 33.2739,118.773 31.7739,116.939 31,114.5C 30.1894,102.757 30.3561,91.0907 31.5,79.5 Z"/></g>
</svg>
